<?xml version="1.0" encoding="UTF-8" standalone="no"?>
<svg width="11px" height="11px" viewBox="0 0 11 11" version="1.1" xmlns="http://www.w3.org/2000/svg" xmlns:xlink="http://www.w3.org/1999/xlink">
    <!-- Generator: Sketch 42 (36781) - http://www.bohemiancoding.com/sketch -->
    <title>Shape</title>
    <desc>Created with Sketch.</desc>
    <defs></defs>
    <g id="Welcome" stroke="none" stroke-width="1" fill="none" fill-rule="evenodd">
        <g id="Desktop" transform="translate(-736.000000, -293.000000)" fill-rule="nonzero" fill="#4A4A4A">
            <g id="Input-/-Text" transform="translate(268.000000, 280.000000)">
                <path d="M477.319926,14.57927 C476.333202,13.80025 475.061883,13.33 473.675532,13.33 C470.546032,13.33 468,15.72327 468,18.665 C468,21.60673 470.546032,24 473.675532,24 C475.237649,24 476.654309,23.40358 477.681521,22.44042 L477.019883,21.81848 C476.162117,22.62236 474.979617,23.12 473.675532,23.12 C471.062213,23.12 468.93617,21.12152 468.93617,18.665 C468.93617,16.20848 471.062213,14.21 473.675532,14.21 C474.803734,14.21 475.840543,14.58312 476.655245,15.20407 L475.021277,16.74 L477.949149,16.74 L478.967234,16.74 L479,13 L477.319926,14.57927 Z" id="Shape"></path>
            </g>
        </g>
    </g>
</svg>